<?xml version="1.0" encoding="UTF-8" standalone="no"?>
<!-- Created with Inkscape (http://www.inkscape.org/) -->

<svg
   width="1600"
   height="1400"
   viewBox="0 0 423.33333 370.41667"
   version="1.1"
   id="svg43"
   inkscape:version="1.1.2 (b8e25be833, 2022-02-05)"
   sodipodi:docname="desenho.svg"
   xmlns:inkscape="http://www.inkscape.org/namespaces/inkscape"
   xmlns:sodipodi="http://sodipodi.sourceforge.net/DTD/sodipodi-0.dtd"
   xmlns="http://www.w3.org/2000/svg"
   xmlns:svg="http://www.w3.org/2000/svg">
  <sodipodi:namedview
     id="namedview45"
     pagecolor="#505050"
     bordercolor="#ffffff"
     borderopacity="1"
     inkscape:pageshadow="0"
     inkscape:pageopacity="0"
     inkscape:pagecheckerboard="1"
     inkscape:document-units="px"
     showgrid="false"
     units="px"
     width="1080px"
     inkscape:zoom="0.51843089"
     inkscape:cx="529.48234"
     inkscape:cy="719.47873"
     inkscape:window-width="1920"
     inkscape:window-height="1009"
     inkscape:window-x="-8"
     inkscape:window-y="-8"
     inkscape:window-maximized="1"
     inkscape:current-layer="layer1" />
  <defs
     id="defs40">
    <inkscape:path-effect
       effect="spiro"
       id="path-effect742"
       is_visible="true"
       lpeversion="1" />
    <filter
       id="filter3263"
       inkscape:label="Sepia"
       inkscape:menu="Color"
       inkscape:menu-tooltip="Render in warm sepia tones"
       height="1"
       width="1"
       y="0"
       x="0"
       color-interpolation-filters="sRGB">
      <feColorMatrix
         id="feColorMatrix3265"
         type="saturate"
         values="0"
         result="result1" />
      <feFlood
         id="feFlood3267"
         flood-color="rgb(9,111,152)"
         result="result2" />
      <feBlend
         id="feBlend3269"
         in2="result1"
         mode="screen"
         result="result2" />
      <feComposite
         id="feComposite3271"
         in2="SourceGraphic"
         operator="in"
         in="result2"
         result="fbSourceGraphic" />
      <feColorMatrix
         result="fbSourceGraphicAlpha"
         in="fbSourceGraphic"
         values="0 0 0 -1 0 0 0 0 -1 0 0 0 0 -1 0 0 0 0 1 0"
         id="feColorMatrix3273" />
      <feColorMatrix
         id="feColorMatrix3275"
         values="0"
         in="fbSourceGraphic"
         type="saturate"
         result="result2" />
      <feFlood
         id="feFlood3277"
         flood-color="rgb(160,67,0)"
         flood-opacity="1"
         result="result1" />
      <feBlend
         id="feBlend3279"
         in2="result1"
         mode="multiply"
         in="result2"
         result="result5" />
      <feBlend
         id="feBlend3281"
         in2="result2"
         mode="screen"
         result="result3" />
      <feComposite
         id="feComposite3283"
         in2="result2"
         result="result4"
         operator="arithmetic"
         k2="1"
         k1="0"
         k3="0"
         k4="0" />
      <feComposite
         id="feComposite3285"
         in2="fbSourceGraphicAlpha"
         operator="in"
         in="result4" />
    </filter>
    <filter
       id="filter3263-8"
       inkscape:label="Sepia"
       inkscape:menu="Color"
       inkscape:menu-tooltip="Render in warm sepia tones"
       height="1"
       width="1"
       y="0"
       x="0"
       color-interpolation-filters="sRGB">
      <feColorMatrix
         id="feColorMatrix3265-1"
         type="saturate"
         values="0"
         result="result1" />
      <feFlood
         id="feFlood3267-7"
         flood-color="rgb(9,111,152)"
         result="result2" />
      <feBlend
         id="feBlend3269-2"
         in2="result1"
         mode="screen"
         result="result2" />
      <feComposite
         id="feComposite3271-1"
         in2="SourceGraphic"
         operator="in"
         in="result2"
         result="fbSourceGraphic" />
      <feColorMatrix
         result="fbSourceGraphicAlpha"
         in="fbSourceGraphic"
         values="0 0 0 -1 0 0 0 0 -1 0 0 0 0 -1 0 0 0 0 1 0"
         id="feColorMatrix3273-6" />
      <feColorMatrix
         id="feColorMatrix3275-0"
         values="0"
         in="fbSourceGraphic"
         type="saturate"
         result="result2" />
      <feFlood
         id="feFlood3277-5"
         flood-color="rgb(160,67,0)"
         flood-opacity="1"
         result="result1" />
      <feBlend
         id="feBlend3279-6"
         in2="result1"
         mode="multiply"
         in="result2"
         result="result5" />
      <feBlend
         id="feBlend3281-2"
         in2="result2"
         mode="screen"
         result="result3" />
      <feComposite
         id="feComposite3283-6"
         in2="result2"
         result="result4"
         operator="arithmetic"
         k2="1"
         k1="0"
         k3="0"
         k4="0" />
      <feComposite
         id="feComposite3285-5"
         in2="fbSourceGraphicAlpha"
         operator="in"
         in="result4" />
    </filter>
  </defs>
  <g
     inkscape:label="Camada 1"
     inkscape:groupmode="layer"
     id="layer1">
    <g
       id="g3869"
       style="filter:url(#filter3263-8)"
       transform="matrix(1.2585077,0,0,1.3976664,-597.97131,-280.3573)">
      <path
         inkscape:connector-curvature="0"
         d="m 549.642,414.41437 c 2.41339,1.77033 4.6818,3.68352 7.12031,5.43168 2.16482,1.67246 4.39318,3.1843 7.07199,4.03179 3.34723,0.87459 6.70236,0.58487 10.03903,-0.12223 5.56948,-1.60798 10.707,-4.2478 15.86809,-6.72585 4.84938,-2.20772 9.79714,-4.22506 14.98126,-5.64521 2.35528,-0.64165 4.78686,-0.84481 7.2279,-0.87915 2.57684,-0.0783 3.77487,-0.0755 5.99922,1.28317 2.30938,1.80335 4.41298,3.78436 6.77771,5.5264 2.19779,1.60762 4.89979,2.18663 7.57498,2.71766 2.49017,0.45215 5.02919,0.55916 7.55937,0.60855 0.97901,0.0118 1.95811,0.0101 2.93719,0.0132 0,0 -9.95095,6.71565 -9.95095,6.71565 v 0 c -0.98294,-0.003 -1.9659,-0.009 -2.94811,-0.0493 -2.5588,-0.11275 -5.12327,-0.30168 -7.62857,-0.82447 -2.82437,-0.62196 -5.59067,-1.37422 -7.86234,-3.1477 -2.33447,-1.70508 -4.32333,-3.7557 -6.73773,-5.36431 -1.93416,-0.91079 -3.55334,-0.78908 -5.66625,-0.72354 -2.3242,0.0861 -4.62941,0.36687 -6.86238,1.00023 -5.06692,1.44869 -9.9134,3.45556 -14.64924,5.66111 -5.24876,2.49796 -10.48322,5.19107 -16.21965,6.59714 -3.53917,0.60644 -7.12052,0.80675 -10.58656,-0.29576 -2.69096,-1.03236 -5.00238,-2.61638 -7.24621,-4.32615 -2.43857,-1.74215 -4.5914,-3.81471 -7.20131,-5.33561 0,0 10.40225,-6.14733 10.40225,-6.14733 z"
         id="path3065"
         style="fill:#0083ff;fill-opacity:1;stroke:none;stroke-width:1.55581;stroke-miterlimit:4;stroke-dasharray:none;stroke-opacity:1" />
      <path
         inkscape:connector-curvature="0"
         d="m 551.68953,432.72791 c 1.54905,1.61359 3.26551,3.1498 5.05393,4.61695 1.56936,1.10086 2.74887,2.32553 4.875,2.80155 2.37463,0.45283 4.74826,0.32369 7.14023,0.092 4.71695,-1.11545 9.02468,-3.03422 13.46727,-4.64605 5.14312,-1.82228 10.29069,-3.62291 15.8216,-4.66097 1.94963,-0.15644 4.05288,-0.73627 6.04366,-0.56066 0.56391,0.0498 1.63762,0.40693 2.17467,0.5716 1.73789,1.26376 3.75477,2.23794 5.7704,3.22371 2.48498,1.14443 4.54476,2.64787 6.48949,4.2576 1.45039,1.17726 3.00738,2.17538 4.91067,2.90761 2.66806,0.79244 5.57045,0.67385 8.34713,0.35065 3.78586,-0.46596 7.40139,-1.47845 11.01547,-2.41369 0,0 -11.78196,6.88366 -11.78196,6.88366 v 0 c -3.6493,0.91751 -7.32611,1.86481 -11.16474,2.21045 -3.06615,0.21404 -6.31135,0.28308 -9.12194,-0.81097 -1.95338,-0.87495 -3.58393,-1.97429 -5.08063,-3.26194 -1.8714,-1.53419 -3.8507,-2.95889 -6.26971,-4.00964 -1.96128,-0.92204 -3.81486,-1.93453 -5.68128,-2.95501 -2.44222,-0.52439 -5.01432,0.0402 -7.44091,0.39242 -5.33746,1.09121 -10.34641,2.85469 -15.32281,4.64725 -4.61936,1.71844 -9.14854,3.85235 -14.25324,4.62163 -2.5652,0.187 -5.17501,0.14061 -7.63735,-0.49571 -2.15292,-0.74304 -3.58408,-2.02214 -5.19265,-3.29389 -1.75414,-1.54609 -3.48809,-3.10367 -5.30502,-4.60987 0,0 13.14272,-5.85867 13.14272,-5.85867 z"
         id="path3940"
         style="fill:#0083ff;fill-opacity:1;fill-rule:nonzero;stroke:none;stroke-width:1.73072;stroke-miterlimit:4;stroke-dasharray:none;stroke-opacity:1" />
      <path
         inkscape:connector-curvature="0"
         d="m 552.72915,452.08007 c 2.19823,1.61764 4.94657,2.67734 7.66993,3.77044 3.37736,1.15507 6.96846,1.90182 10.65442,2.34042 4.89837,0.77462 9.10987,-0.53632 13.5144,-1.90221 3.21407,-1.04164 6.20671,-2.41792 9.48027,-3.37075 1.23032,-0.3581 2.50137,-0.64098 3.7442,-0.97646 2.88045,-0.78084 5.95206,-1.03137 9.00668,-1.16175 2.93743,-0.15326 4.75464,0.45383 7.02452,1.71006 2.12745,1.33595 4.35366,2.58501 6.64251,3.77615 1.93684,1.01829 4.075,1.71815 6.31437,2.32929 3.24202,0.84591 5.31068,0.5008 8.47194,-0.31772 2.44774,-0.92258 4.95071,-1.76614 7.39108,-2.69776 0,0 -12.28395,7.01853 -12.28395,7.01853 v 0 c -2.47669,0.88849 -4.94182,1.80703 -7.52545,2.53012 -3.1799,0.63098 -6.22973,0.77477 -9.31246,-0.21407 -2.30517,-0.69655 -4.51747,-1.47174 -6.49294,-2.58549 -2.27321,-1.19964 -4.42802,-2.50279 -6.62728,-3.7696 -1.97479,-0.9276 -4.05588,-1.25149 -6.42172,-1.04568 -2.93815,0.18321 -5.84138,0.54386 -8.58895,1.34141 -4.45952,1.18442 -8.62633,2.78292 -12.92051,4.23465 -4.97417,1.45831 -8.93052,2.36494 -14.33633,1.52835 -3.78372,-0.55328 -7.48362,-1.38368 -10.92497,-2.65122 -2.82973,-1.11954 -5.57143,-2.31222 -8.10711,-3.75027 0,0 13.62735,-6.13644 13.62735,-6.13644 z"
         id="path3944"
         style="fill:#0083ff;fill-opacity:1;fill-rule:nonzero;stroke:none;stroke-width:1.77773;stroke-miterlimit:4;stroke-dasharray:none;stroke-opacity:1" />
      <path
         inkscape:connector-curvature="0"
         d="m 551.02937,393.72694 c 0.8074,1.68104 2.09664,3.03944 3.46821,4.27556 2.08757,1.92304 4.3517,3.55897 6.91719,4.78454 2.40705,0.96678 4.9621,1.41558 7.53047,1.68763 5.22034,0.79253 10.09717,-0.66465 14.90294,-2.55583 3.27944,-1.31346 6.22845,-3.30176 9.44241,-4.74463 1.24294,-0.558 2.52563,-1.02448 3.7765,-1.56468 3.4528,-1.38599 7.08716,-2.1447 10.7671,-2.61158 2.46031,-0.23871 4.95791,-0.47525 7.42311,-0.20573 2.03355,0.36777 3.80367,1.30995 5.50343,2.43577 1.72381,0.97057 3.65684,1.56405 5.58607,1.98523 2.50575,0.39609 5.04812,0.53372 7.57047,0.27781 3.26274,-0.55937 6.06514,-2.28601 8.88178,-3.90375 0,0 -10.43784,8.38736 -10.43784,8.38736 v 0 c -2.90711,1.58023 -5.87958,3.09792 -9.231,3.44711 -2.70451,0.1737 -5.43194,0.17675 -8.08568,-0.45161 -2.02734,-0.55468 -4.04355,-1.22794 -5.83152,-2.35273 -1.57842,-0.948 -3.25517,-1.70913 -5.11372,-1.89105 -2.36066,-0.0945 -4.72668,0.049 -7.07373,0.30598 -3.58558,0.51399 -7.09917,1.35809 -10.43103,2.80834 -4.38531,1.83831 -8.53195,4.14116 -12.91089,5.99356 -5.09918,1.80467 -10.27773,3.11795 -15.73477,2.41128 -2.71978,-0.2868 -5.43491,-0.79307 -7.89374,-2.04358 -2.57246,-1.4031 -4.9277,-3.12 -7.10638,-5.07638 -1.59954,-1.42089 -3.07863,-2.96668 -4.23532,-4.77419 0,0 12.31594,-6.62443 12.31594,-6.62443 z"
         id="path4158"
         style="fill:#0083ff;fill-opacity:1;fill-rule:nonzero;stroke:none;stroke-width:2.00292;stroke-miterlimit:4;stroke-dasharray:none;stroke-opacity:1" />
      <path
         inkscape:connector-curvature="0"
         d="m 553.43756,289.38384 c 0.0169,2.098 1.1503,3.99864 1.98123,5.83074 1.70239,3.49971 3.40969,7.00423 4.64476,10.72742 0.91256,3.34971 1.29909,6.84411 0.82288,10.31427 -0.1404,1.02312 -0.36716,2.03052 -0.55074,3.04578 -1.79378,7.35522 -4.24927,14.49694 -6.325,21.76213 -1.4052,4.65309 -2.51006,9.37462 -3.0759,14.22685 -0.22407,2.67807 -0.48732,5.39914 -0.10858,8.07821 0.21418,1.51504 0.4376,2.04504 0.87877,3.48732 0.83589,2.32747 2.39838,4.07337 4.08261,5.71899 0,0 -8.25945,5.45421 -8.25945,5.45421 v 0 c -1.74621,-1.8073 -3.29522,-3.796 -4.14843,-6.27185 -0.50191,-1.63483 -0.68163,-1.9939 -0.92638,-3.71422 -0.3905,-2.74464 -0.16288,-5.52893 0.0191,-8.28 0.59599,-5.03255 1.90444,-9.87958 3.50202,-14.65108 2.26563,-7.11565 4.67191,-14.20952 6.21689,-21.55478 0.27288,-1.96068 0.52688,-3.27833 0.55457,-5.22542 0.0359,-2.52386 -0.41992,-5.04901 -0.99457,-7.48245 -1.13574,-3.70573 -2.80093,-7.17423 -4.59977,-10.55989 -1.06335,-1.90025 -2.25931,-3.81089 -2.69342,-6.00979 0,0 8.97945,-4.89644 8.97945,-4.89644 z"
         id="path4208"
         style="fill:#cd1423;fill-opacity:1;fill-rule:nonzero;stroke:none;stroke-width:1.55175;stroke-miterlimit:4;stroke-dasharray:none;stroke-opacity:1" />
      <path
         inkscape:connector-curvature="0"
         d="m 571.79846,288.81572 c 1.33022,1.7358 2.74682,3.37824 4.05267,5.13943 2.02503,2.81216 3.54988,5.96418 4.69615,9.32535 1.1763,3.74355 1.15622,7.74241 0.99304,11.65421 -0.42767,6.03699 -1.71194,11.94286 -2.81089,17.85772 -1.04417,5.11026 -2.06582,10.22606 -3.11716,15.33454 -0.9187,4.44047 -1.89229,8.86279 -2.47741,13.37656 -0.23073,2.42342 -0.59256,4.88687 -0.22765,7.31055 0.27918,1.43909 1.10266,2.43863 1.99769,3.43923 0,0 -8.4897,5.77645 -8.4897,5.77645 v 0 c -0.96066,-1.2009 -1.80234,-2.45512 -2.15211,-4.05759 -0.0757,-0.38867 -0.18166,-0.7715 -0.22715,-1.16602 -0.25429,-2.20556 0.32966,-4.45485 0.53944,-6.62797 0.77353,-4.54366 1.72025,-9.04224 2.66416,-13.5449 1.04018,-5.15831 2.15175,-10.2983 3.31025,-15.42494 1.15512,-5.80249 2.3421,-11.63779 2.68614,-17.58512 0.0701,-3.74266 -0.0952,-7.53677 -1.0705,-11.14408 -1.05355,-3.27892 -2.49446,-6.32724 -4.55114,-8.97381 -1.38049,-1.70248 -2.8283,-3.34158 -4.42463,-4.79451 0,0 8.6088,-5.8951 8.6088,-5.8951 z"
         id="path4210"
         style="fill:#cd1423;fill-opacity:1;fill-rule:nonzero;stroke:none;stroke-width:1.58564;stroke-miterlimit:4;stroke-dasharray:none;stroke-opacity:1" />
      <path
         inkscape:connector-curvature="0"
         d="m 594.25781,289.78066 c 0.42113,1.37075 1.30325,2.54158 2.1066,3.69096 1.62512,2.28578 3.15994,4.64094 4.60774,7.05231 1.58611,2.38235 1.9141,5.08646 2.07413,7.90274 0.0494,4.74867 -1.26906,9.30402 -2.70697,13.75763 -1.76542,4.9946 -3.53228,9.98609 -5.1977,15.01765 -1.287,3.88903 -2.13444,7.90044 -2.69847,11.96532 -0.4592,3.91562 -0.49843,7.86597 -0.48613,11.80524 -0.10294,2.94239 0.88648,5.50971 2.26657,8.00861 0.83246,1.33047 1.75702,2.59971 2.76043,3.79446 0,0 -8.43339,5.25418 -8.43339,5.25418 v 0 c -0.93066,-1.3113 -1.81702,-2.65883 -2.65768,-4.03454 -1.49156,-2.6528 -2.63085,-5.36887 -2.44037,-8.52028 0.0961,-4.0007 0.21265,-8.00449 0.58623,-11.98964 0.47472,-4.15204 1.29551,-8.24251 2.67681,-12.17971 1.75125,-5.04052 3.67177,-10.01327 5.35918,-15.07826 1.36115,-4.27087 2.57225,-8.6724 2.49717,-13.21602 -0.24081,-2.61347 -0.57802,-5.17376 -1.97046,-7.4345 -1.33715,-2.44491 -2.92217,-4.71837 -4.61262,-6.9113 -0.95722,-1.22704 -1.95806,-2.44035 -2.61487,-3.87945 0,0 8.8838,-5.0054 8.8838,-5.0054 z"
         id="path4214"
         style="fill:#cd1423;fill-opacity:1;fill-rule:nonzero;stroke:none;stroke-width:1.53109;stroke-miterlimit:4;stroke-dasharray:none;stroke-opacity:1" />
      <path
         inkscape:connector-curvature="0"
         d="m 612.57708,290.76108 c 1.35834,1.10043 2.69811,2.22892 3.98798,3.42348 1.64778,1.52697 2.97131,3.37522 4.08916,5.37499 1.13929,2.17996 1.32488,4.64822 1.39616,7.09787 0.15913,3.96877 -0.11404,7.91696 -0.54174,11.855 -0.53832,4.66756 -1.54982,9.24315 -2.75949,13.75384 -1.35066,4.76094 -2.64583,9.53804 -3.75679,14.37143 -1.1183,4.59123 -1.65783,9.29292 -1.94246,14.01947 -0.31744,3.1672 0.25151,5.5801 1.46058,8.42758 0.55848,1.28201 1.22195,2.47577 1.98567,3.6222 0,0 -8.36124,5.32282 -8.36124,5.32282 v 0 c -0.74423,-1.22533 -1.42171,-2.48284 -2.00874,-3.80723 -1.41418,-3.22215 -2.021,-5.35362 -1.56034,-8.97712 0.42306,-4.80665 1.07671,-9.59375 2.12954,-14.28966 1.00362,-4.85939 2.30292,-9.6215 3.65293,-14.37967 1.23655,-4.43731 2.19693,-8.95869 2.75375,-13.55885 0.41654,-3.84595 0.67085,-7.69288 0.36692,-11.56369 -0.15542,-2.24895 -0.27342,-4.54923 -1.28977,-6.57489 -1.05202,-1.91435 -2.30136,-3.64613 -3.8851,-5.08852 -1.29975,-1.12289 -2.62387,-2.27388 -4.14691,-3.02318 0,0 8.42989,-6.00587 8.42989,-6.00587 z"
         id="path4216"
         style="fill:#cd1423;fill-opacity:1;fill-rule:nonzero;stroke:none;stroke-width:1.56087;stroke-miterlimit:4;stroke-dasharray:none;stroke-opacity:1" />
      <path
         inkscape:connector-curvature="0"
         d="m 633.83539,290.98935 c 1.54938,2.24463 3.13227,4.46134 4.68589,6.7045 1.54697,2.45604 3.21134,4.86869 4.19597,7.67927 0.92377,3.74714 0.15659,7.56672 -0.6734,11.23725 -1.19676,4.63324 -2.48046,9.23934 -3.76807,13.84245 -1.15622,4.20046 -2.12784,8.4532 -3.0224,12.72993 -0.78829,3.58574 -1.01025,7.2682 -1.13403,10.94286 -0.2793,3.96332 0.57465,7.76534 1.66122,11.49915 0.79753,2.45853 1.79493,4.82913 2.76271,7.20876 0,0 -8.34213,5.19624 -8.34213,5.19624 v 0 c -0.87106,-2.46437 -1.84724,-4.88088 -2.66743,-7.36778 -1.13497,-3.81231 -2.21037,-7.69133 -1.92749,-11.76348 0.1256,-3.73774 0.30265,-7.49285 1.07639,-11.14777 0.98173,-4.31574 2.04605,-8.60507 3.16604,-12.87901 1.2834,-4.59106 2.55034,-9.18829 3.79868,-13.7913 0.75291,-3.43926 1.402,-6.94043 0.5044,-10.4353 -0.83123,-2.75414 -2.2964,-5.18449 -3.78299,-7.5543 -1.58011,-2.21338 -3.23059,-4.35418 -5.11228,-6.263 0,0 8.57892,-5.83847 8.57892,-5.83847 z"
         id="path4218"
         style="fill:#cd1423;fill-opacity:1;fill-rule:nonzero;stroke:none;stroke-width:1.58076;stroke-miterlimit:4;stroke-dasharray:none;stroke-opacity:1" />
      <path
         inkscape:connector-curvature="0"
         d="m 663.35027,333.6777 c 3.7713,-1.82767 7.6635,-3.36922 11.6264,-4.72546 5.22745,-1.69096 10.69773,-2.00157 16.14312,-1.75204 5.35338,0.44893 10.24035,2.74596 15.04409,4.98261 2.93334,1.42803 5.94103,2.75346 9.15193,3.41162 2.12821,0.43623 3.19393,0.46529 5.38051,0.65922 7.66992,0.54372 14.57296,-2.31453 21.52119,-5.15547 4.37992,-1.81093 8.70424,-3.75178 13.08154,-5.56842 0,0 -5.17467,6.33598 -5.17467,6.33598 v 0 c -4.2487,1.55098 -8.4205,3.29654 -12.60542,5.01149 -7.35457,2.99668 -14.22573,5.77765 -22.34126,5.25758 -2.48123,-0.21174 -3.21635,-0.19226 -5.6136,-0.70719 -3.28228,-0.70503 -6.34344,-2.07595 -9.34035,-3.55607 -4.65309,-2.25563 -9.42482,-4.39686 -14.67413,-4.64918 -5.31669,-0.16787 -10.64586,0.16356 -15.70711,1.95885 -4.1544,1.54278 -8.27438,3.24661 -12.04346,5.60821 0,0 5.55122,-7.11173 5.55122,-7.11173 z"
         id="path4364"
         style="fill:#f0be28;fill-opacity:0.941176;fill-rule:nonzero;stroke:none;stroke-width:1.25589;stroke-miterlimit:4;stroke-dasharray:none;stroke-opacity:1" />
      <path
         inkscape:connector-curvature="0"
         d="m 664.65002,314.01349 c 2.81985,-1.1086 5.73241,-1.94612 8.63793,-2.79717 3.98284,-1.11105 8.13689,-0.99404 12.23114,-0.94834 2.35207,0.12726 4.72465,-2.7e-4 7.07138,0.24141 2.56088,0.26373 5.02428,0.89601 7.4895,1.59861 4.58408,1.50141 8.94763,3.57067 13.41931,5.35913 4.59289,1.8239 9.52417,2.01425 14.40305,1.9059 5.48484,-0.28614 10.80285,-1.93205 15.94331,-3.76183 3.92997,-1.44366 7.73874,-3.16285 11.45341,-5.08144 0,0 -5.30068,6.59259 -5.30068,6.59259 v 0 c -3.68361,1.64178 -7.40433,3.20025 -11.20769,4.55113 -5.25204,1.74501 -10.62857,3.33677 -16.20606,3.49763 -5.07071,0.0813 -10.15366,-0.14669 -14.91262,-2.08829 -4.37584,-1.84288 -8.6613,-3.93877 -13.20098,-5.36301 -0.82571,-0.21302 -1.64358,-0.45868 -2.47714,-0.63904 -3.93195,-0.85079 -7.94918,-0.88407 -11.95392,-0.88219 -4.0563,0.005 -8.14964,0.1013 -12.06038,1.3011 -3.06215,0.92161 -6.07197,1.97009 -9.01499,3.2186 0,0 5.68543,-6.70479 5.68543,-6.70479 z"
         id="path4376"
         style="fill:#f0be28;fill-opacity:0.941176;fill-rule:nonzero;stroke:none;stroke-width:1.22193;stroke-miterlimit:4;stroke-dasharray:none;stroke-opacity:1" />
      <path
         inkscape:connector-curvature="0"
         d="m 664.7716,371.24891 c 3.31563,-1.67626 6.64836,-3.30634 10.06368,-4.70826 3.32523,-1.19693 6.74177,-2.06356 10.2236,-2.39898 1.96147,-0.18896 3.02039,-0.1605 4.98824,-0.18457 3.30506,0.059 6.63213,0.0227 9.90363,0.64068 2.03302,0.38403 2.98464,0.73111 4.98862,1.33648 4.96628,1.7173 9.99446,3.26882 15.11974,4.26105 1.10662,0.21423 2.22146,0.37036 3.33219,0.55555 5.24605,0.53849 10.62211,1.14574 15.86425,0.18638 0.84619,-0.15486 1.67565,-0.40935 2.51346,-0.61402 3.92738,-1.20897 7.62908,-3.12318 11.11299,-5.47364 1.69802,-1.21655 0.89435,-0.60656 2.41705,-1.81982 0,0 -5.11792,7.5317 -5.11792,7.5317 v 0 c -1.50658,1.056 -0.7128,0.51563 -2.38493,1.61444 -3.53047,2.15252 -7.25485,3.97419 -11.20432,4.88198 -0.84234,0.1479 -1.67961,0.33894 -2.52702,0.44371 -5.28529,0.65344 -10.64506,-0.014 -15.90635,-0.59053 -1.13058,-0.18974 -2.26499,-0.35236 -3.39172,-0.56921 -5.19136,-0.9991 -10.2706,-2.60283 -15.36509,-4.07922 -1.97986,-0.52389 -2.93873,-0.82858 -4.93195,-1.16146 -3.23273,-0.53989 -6.50777,-0.50617 -9.7666,-0.52949 -5.18111,0.16485 -9.9678,0.75994 -14.8674,2.84225 -3.62585,1.64155 -7.16495,3.49724 -10.63334,5.52642 0,0 5.56919,-7.69144 5.56919,-7.69144 z"
         id="path4394"
         style="fill:#f0be28;fill-opacity:0.941176;fill-rule:nonzero;stroke:none;stroke-width:1.29182;stroke-miterlimit:4;stroke-dasharray:none;stroke-opacity:1" />
      <path
         inkscape:connector-curvature="0"
         d="m 663.68823,351.03021 c 2.3495,-1.56317 4.6277,-3.24854 6.98735,-4.79861 4.59349,-2.07848 9.629,-1.94674 14.49622,-1.9181 6.72316,-0.005 13.04312,2.66017 19.2787,5.17852 4.24947,1.72729 8.60998,3.09933 13.10325,3.71843 2.48721,0.34269 3.62172,0.33601 6.11746,0.4476 5.6002,-0.0624 11.08462,-1.6075 16.30948,-3.8013 1.09281,-0.45884 2.15643,-1.00105 3.23465,-1.50157 4.24968,-2.1456 8.34732,-4.69376 12.08371,-7.82542 0,0 -5.5499,8.18452 -5.5499,8.18452 v 0 c -3.79307,2.69826 -7.75227,5.11185 -11.90688,7.03693 -6.42582,2.80717 -13.10658,5.17105 -20.07975,5.0464 -2.71711,-0.17589 -3.48904,-0.15265 -6.18566,-0.62104 -4.51345,-0.78397 -8.8997,-2.26404 -13.19918,-3.96391 -6.18551,-2.44088 -12.44864,-4.92517 -19.11124,-4.64248 -4.8588,0.10706 -9.91632,0.16596 -14.28375,2.87567 -2.47486,1.66569 -4.86044,3.48255 -7.28292,5.24138 0,0 5.98846,-8.65702 5.98846,-8.65702 z"
         id="path4396"
         style="fill:#f0be28;fill-opacity:0.941176;fill-rule:nonzero;stroke:none;stroke-width:1.43087;stroke-miterlimit:4;stroke-dasharray:none;stroke-opacity:1" />
      <path
         inkscape:connector-curvature="0"
         d="m 665.43969,294.73883 c 3.85341,-1.02292 7.62694,-2.35107 11.51201,-3.2449 1.20143,-0.27641 2.41385,-0.49566 3.62076,-0.7435 4.77842,-0.88557 9.61549,-1.2886 14.43834,-0.56871 3.15446,0.47086 3.86423,0.80394 6.92288,1.72353 5.22929,1.60186 9.99872,4.55932 15.24001,6.11465 0.94232,0.27963 1.90638,0.4685 2.85957,0.70275 4.45393,0.71983 9.00147,0.9825 13.49606,0.55519 3.2794,-0.31178 4.29393,-0.62206 7.50966,-1.30377 5.09322,-1.24514 9.85294,-3.54523 14.26007,-6.492 1.03573,-0.67184 0.54468,-0.40342 1.45484,-0.84211 0,0 -6.32251,8.41713 -6.32251,8.41713 v 0 c -0.69528,0.38762 -0.30038,0.16829 -1.18533,0.65675 -4.43073,2.40316 -9.08361,4.33884 -13.98228,5.35301 -1.25599,0.2364 -2.50557,0.51534 -3.76799,0.70921 -5.91397,0.90826 -11.98226,0.9794 -17.87541,-0.11441 -0.99438,-0.26128 -2.00419,-0.46334 -2.98315,-0.78383 -0.93308,-0.30548 -1.83531,-0.70966 -2.74342,-1.09094 -4.08438,-1.71488 -8.03603,-3.8067 -12.25895,-5.13096 -1.11461,-0.3124 -2.21673,-0.68049 -3.34383,-0.93721 -5.80028,-1.32119 -11.71402,-1.01165 -17.50879,0.17924 -1.20124,0.27852 -2.41041,0.52086 -3.60374,0.83555 -4.17747,1.10166 -8.23426,2.68634 -12.2442,4.33203 0,0 6.5054,-8.3267 6.5054,-8.3267 z"
         id="path4428"
         style="fill:#f0be28;fill-opacity:0.941176;fill-rule:nonzero;stroke:none;stroke-width:1.45421;stroke-miterlimit:4;stroke-dasharray:none;stroke-opacity:1" />
      <path
         inkscape:connector-curvature="0"
         d="m 669.91765,410.37979 c 7.00777,0.49439 14.05105,0.55548 21.07763,0.6784 15.31787,0.33004 30.63731,0.36361 45.95855,0.28779 6.1176,-0.0525 12.23209,-0.20952 18.34522,-0.41141 0,0 -9.7624,9.37377 -9.7624,9.37377 v 0 c -5.82722,-0.20665 -11.65611,-0.36142 -17.48828,-0.4114 -15.52105,-0.0776 -31.04017,-0.0348 -46.55801,0.28778 -7.49809,0.12656 -15.00845,0.20534 -22.49064,0.6784 0,0 10.91793,-10.48333 10.91793,-10.48333 z"
         id="path4442"
         style="fill:#007400;fill-opacity:1;fill-rule:nonzero;stroke:none;stroke-width:1.59914;stroke-miterlimit:4;stroke-dasharray:none;stroke-opacity:1" />
      <path
         inkscape:connector-curvature="0"
         d="m 667.94684,429.84574 c 8.57091,0.81808 17.20892,0.44008 25.80329,0.36772 14.13883,-0.0533 28.27789,-0.0168 42.41629,-0.16298 6.38967,-0.0883 12.76699,-0.51352 19.13263,-1.10434 0,0 -7.89045,9.64261 -7.89045,9.64261 v 0 c -6.06995,-0.10246 -12.14019,-0.11187 -18.21079,-0.11809 -14.16419,-0.18577 -28.33295,-0.15909 -42.49297,0.30907 -9.12387,0.3175 -18.25109,0.70272 -27.35481,1.45711 0,0 8.59681,-10.3911 8.59681,-10.3911 z"
         id="path4448"
         style="fill:#007400;fill-opacity:1;fill-rule:nonzero;stroke:none;stroke-width:1.42529;stroke-miterlimit:4;stroke-dasharray:none;stroke-opacity:1" />
      <path
         inkscape:connector-curvature="0"
         d="m 668.02179,395.41723 c 0.39017,-0.0183 0.78255,-0.009 1.17054,-0.0551 5.17344,-0.6131 -1.86356,-0.0649 5.23905,-0.68292 5.49164,-0.47787 11.00594,-0.54069 16.51279,-0.66317 15.31423,-0.186 30.62924,0.0616 45.94343,-0.098 6.15075,0.0127 12.2888,-0.15932 18.41145,-0.75091 0,0 -8.7511,9.80096 -8.7511,9.80096 v 0 c -5.80068,-0.0716 -11.59192,-0.36193 -17.39046,-0.52526 -15.31497,-0.40424 -30.65137,-0.47084 -45.9585,0.25005 -5.77328,0.38995 -11.53064,0.74292 -17.22799,1.82965 -1.46084,0.27864 -4.14679,0.91468 -5.6835,1.49586 -0.36003,0.13617 -0.68099,0.36106 -1.02147,0.54158 0,0 8.75576,-11.14276 8.75576,-11.14276 z"
         id="path4454"
         style="fill:#007400;fill-opacity:1;fill-rule:nonzero;stroke:none;stroke-width:1.49046;stroke-miterlimit:4;stroke-dasharray:none;stroke-opacity:1" />
      <path
         inkscape:connector-curvature="0"
         d="m 665.46697,448.62797 c 6.25695,0.72841 12.55026,0.7812 18.82623,0.94122 12.21712,0.0472 24.42358,0.67773 36.63367,1.15683 6.76231,0.11213 13.5378,0.58942 20.29878,0.12306 2.67373,-0.18443 4.28281,-0.45364 6.88834,-0.82086 2.40597,-0.35098 4.79402,-0.88388 7.18506,-1.38053 0,0 -6.80058,10.36402 -6.80058,10.36402 v 0 c -2.21857,0.13176 -4.43473,0.33023 -6.65223,0.48992 -8.83751,0.51729 -17.66915,-0.0973 -26.50082,-0.61487 -12.27751,-0.71776 -24.56039,-1.29617 -36.85049,-0.74743 -6.70113,0.16516 -13.41474,0.24662 -20.09982,0.94122 0,0 7.07186,-10.45258 7.07186,-10.45258 z"
         id="path4460"
         style="fill:#007400;fill-opacity:1;fill-rule:nonzero;stroke:none;stroke-width:1.2889;stroke-miterlimit:4;stroke-dasharray:none;stroke-opacity:1" />
      <g
         transform="matrix(0.37786489,0,0,0.42219908,403.87744,177.58569)"
         id="g3086">
        <path
           inkscape:connector-curvature="0"
           id="path4470"
           d="m 673.625,66.21875 c -6.35308,3.006597 -10.32624,10.012036 -15.88813,14.323446 -6.07538,5.937506 -12.1848,11.840291 -18.23687,17.801554 57.62427,18.65186 109.03516,50.9785 162.12465,79.57799 61.09582,34.13014 122.72815,67.34093 183.62535,101.79701 18.5913,11.3144 38.1703,22.56767 53.0312,38.625 1.8618,2.81675 2.9451,6.08444 4.0626,9.28125 12.1684,-9.7191 24.3663,-19.40149 36.5312,-29.125 -14.4342,-18.67854 -37.8567,-26.83266 -57.7493,-38.49699 C 960.66489,228.48637 900.20193,197.22674 841.20155,163.06177 787.35785,132.29073 733.90561,100.16643 680.25,69.09375 c -1.94728,-1.390582 -4.0786,-3.126023 -6.625,-2.875 z"
           style="fill:#000000;fill-opacity:1;fill-rule:nonzero;stroke:none" />
        <path
           inkscape:connector-curvature="0"
           id="path4480"
           d="m 687.0625,58.15625 c -42.72104,18.137923 -86.81646,33.564274 -126.61657,57.63768 -60.35616,33.43686 -121.1075,66.2044 -181.26613,99.95725 -43.0238,22.74638 -87.4767,43.68353 -133.95312,58.43223 -6.25568,2.25054 -14.06016,1.90692 -19.35752,5.78001 -12.27828,15.10677 -24.56597,30.2059 -36.83791,45.31783 63.04697,-16.34087 121.81864,-45.36542 178.87386,-76.18856 47.7634,-26.68114 94.89597,-54.58386 143.49789,-79.53999 40.25428,-21.95218 80.83405,-43.5979 124.29367,-58.66967 7.26424,-3.20118 15.92502,-4.45214 22.2294,-9.11017 12.05509,-15.518661 24.11854,-31.030825 36.16768,-46.55411 -2.34375,0.979167 -4.6875,1.958333 -7.03125,2.9375 z"
           style="fill:#000000;fill-opacity:1;fill-rule:nonzero;stroke:none" />
      </g>
    </g>
  </g>
</svg>
